# MagicaVoxel @ Ephtracy

# group
o 

# material
mtllib Straws.mtl
usemtl palette

# normals
vn -1 0 0
vn 1 0 0
vn 0 0 1
vn 0 0 -1
vn 0 -1 0
vn 0 1 0

# texcoords
vt 0.00195312 0.5
vt 0.0136719 0.5
vt 0.138672 0.5
vt 0.435547 0.5
vt 0.681641 0.5

# verts
v -0.2 0 -0.1
v -0.2 0 -0.2
v -0.2 0 -0.3
v -0.2 0 -0.4
v -0.2 0.2 -0.1
v -0.2 0.2 -0.2
v -0.2 0.2 -0.3
v -0.2 0.2 -0.4
v -0.2 0.3 -0.1
v -0.2 0.3 -0.2
v -0.2 0.3 -0.3
v -0.2 0.3 -0.4
v -0.2 0.4 -0.1
v -0.2 0.4 -0.2
v -0.2 0.4 -0.3
v -0.2 0.4 -0.4
v -0.2 0.5 -0.1
v -0.2 0.5 -0.2
v -0.2 0.5 -0.3
v -0.2 0.5 -0.4
v -0.2 0.6 -0.1
v -0.2 0.6 -0.2
v -0.2 0.6 -0.3
v -0.2 0.6 -0.4
v -0.2 0.7 -0.1
v -0.2 0.7 -0.2
v -0.2 0.7 -0.3
v -0.2 0.7 -0.4
v -0.2 0.9 -0.1
v -0.2 0.9 -0.2
v -0.2 0.9 -0.3
v -0.2 0.9 -0.4
v 5.96046e-08 0 2.23517e-08
v 5.96046e-08 0 -0.1
v 5.96046e-08 0 -0.2
v 5.96046e-08 0 -0.3
v 5.96046e-08 0 -0.4
v 5.96046e-08 0 -0.5
v 5.96046e-08 0.2 2.23517e-08
v 5.96046e-08 0.2 -0.1
v 5.96046e-08 0.2 -0.2
v 5.96046e-08 0.2 -0.3
v 5.96046e-08 0.2 -0.4
v 5.96046e-08 0.2 -0.5
v 5.96046e-08 0.3 2.23517e-08
v 5.96046e-08 0.3 -0.1
v 5.96046e-08 0.3 -0.2
v 5.96046e-08 0.3 -0.3
v 5.96046e-08 0.3 -0.4
v 5.96046e-08 0.3 -0.5
v 5.96046e-08 0.4 2.23517e-08
v 5.96046e-08 0.4 -0.1
v 5.96046e-08 0.4 -0.2
v 5.96046e-08 0.4 -0.3
v 5.96046e-08 0.4 -0.4
v 5.96046e-08 0.4 -0.5
v 5.96046e-08 0.5 2.23517e-08
v 5.96046e-08 0.5 -0.1
v 5.96046e-08 0.5 -0.2
v 5.96046e-08 0.5 -0.3
v 5.96046e-08 0.5 -0.4
v 5.96046e-08 0.5 -0.5
v 5.96046e-08 0.6 2.23517e-08
v 5.96046e-08 0.6 -0.1
v 5.96046e-08 0.6 -0.2
v 5.96046e-08 0.6 -0.3
v 5.96046e-08 0.6 -0.4
v 5.96046e-08 0.6 -0.5
v 5.96046e-08 0.7 2.23517e-08
v 5.96046e-08 0.7 -0.1
v 5.96046e-08 0.7 -0.2
v 5.96046e-08 0.7 -0.3
v 5.96046e-08 0.7 -0.4
v 5.96046e-08 0.7 -0.5
v 5.96046e-08 0.9 2.23517e-08
v 5.96046e-08 0.9 -0.1
v 5.96046e-08 0.9 -0.2
v 5.96046e-08 0.9 -0.3
v 5.96046e-08 0.9 -0.4
v 5.96046e-08 0.9 -0.5
v 0.2 0 -0.1
v 0.2 0 -0.2
v 0.2 0 -0.3
v 0.2 0 -0.4
v 0.2 0.2 -0.1
v 0.2 0.2 -0.2
v 0.2 0.2 -0.3
v 0.2 0.2 -0.4
v 0.2 0.3 -0.1
v 0.2 0.3 -0.2
v 0.2 0.3 -0.3
v 0.2 0.3 -0.4
v 0.2 0.4 -0.1
v 0.2 0.4 -0.2
v 0.2 0.4 -0.3
v 0.2 0.4 -0.4
v 0.2 0.5 -0.1
v 0.2 0.5 -0.2
v 0.2 0.5 -0.3
v 0.2 0.5 -0.4
v 0.2 0.6 -0.1
v 0.2 0.6 -0.2
v 0.2 0.6 -0.3
v 0.2 0.6 -0.4
v 0.2 0.7 -0.1
v 0.2 0.7 -0.2
v 0.2 0.7 -0.3
v 0.2 0.7 -0.4
v 0.2 0.9 -0.1
v 0.2 0.9 -0.2
v 0.2 0.9 -0.3
v 0.2 0.9 -0.4
v -0.0999999 0 -0.1
v -0.0999999 0 -0.2
v -0.0999999 0 -0.3
v -0.0999999 0 -0.4
v -0.0999999 0.2 -0.1
v -0.0999999 0.2 -0.2
v -0.0999999 0.2 -0.3
v -0.0999999 0.2 -0.4
v -0.0999999 0.3 -0.1
v -0.0999999 0.3 -0.2
v -0.0999999 0.3 -0.3
v -0.0999999 0.3 -0.4
v -0.0999999 0.4 -0.1
v -0.0999999 0.4 -0.2
v -0.0999999 0.4 -0.3
v -0.0999999 0.4 -0.4
v -0.0999999 0.5 -0.1
v -0.0999999 0.5 -0.2
v -0.0999999 0.5 -0.3
v -0.0999999 0.5 -0.4
v -0.0999999 0.6 -0.1
v -0.0999999 0.6 -0.2
v -0.0999999 0.6 -0.3
v -0.0999999 0.6 -0.4
v -0.0999999 0.7 -0.1
v -0.0999999 0.7 -0.2
v -0.0999999 0.7 -0.3
v -0.0999999 0.7 -0.4
v -0.0999999 0.9 -0.1
v -0.0999999 0.9 -0.2
v -0.0999999 0.9 -0.3
v -0.0999999 0.9 -0.4
v 0.1 0 2.23517e-08
v 0.1 0 -0.1
v 0.1 0 -0.2
v 0.1 0 -0.3
v 0.1 0 -0.4
v 0.1 0 -0.5
v 0.1 0.2 2.23517e-08
v 0.1 0.2 -0.1
v 0.1 0.2 -0.2
v 0.1 0.2 -0.3
v 0.1 0.2 -0.4
v 0.1 0.2 -0.5
v 0.1 0.3 2.23517e-08
v 0.1 0.3 -0.1
v 0.1 0.3 -0.2
v 0.1 0.3 -0.3
v 0.1 0.3 -0.4
v 0.1 0.3 -0.5
v 0.1 0.4 2.23517e-08
v 0.1 0.4 -0.1
v 0.1 0.4 -0.2
v 0.1 0.4 -0.3
v 0.1 0.4 -0.4
v 0.1 0.4 -0.5
v 0.1 0.5 2.23517e-08
v 0.1 0.5 -0.1
v 0.1 0.5 -0.2
v 0.1 0.5 -0.3
v 0.1 0.5 -0.4
v 0.1 0.5 -0.5
v 0.1 0.6 2.23517e-08
v 0.1 0.6 -0.1
v 0.1 0.6 -0.2
v 0.1 0.6 -0.3
v 0.1 0.6 -0.4
v 0.1 0.6 -0.5
v 0.1 0.7 2.23517e-08
v 0.1 0.7 -0.1
v 0.1 0.7 -0.2
v 0.1 0.7 -0.3
v 0.1 0.7 -0.4
v 0.1 0.7 -0.5
v 0.1 0.9 2.23517e-08
v 0.1 0.9 -0.1
v 0.1 0.9 -0.2
v 0.1 0.9 -0.3
v 0.1 0.9 -0.4
v 0.1 0.9 -0.5
v 0.3 0 -0.1
v 0.3 0 -0.2
v 0.3 0 -0.3
v 0.3 0 -0.4
v 0.3 0.2 -0.1
v 0.3 0.2 -0.2
v 0.3 0.2 -0.3
v 0.3 0.2 -0.4
v 0.3 0.3 -0.1
v 0.3 0.3 -0.2
v 0.3 0.3 -0.3
v 0.3 0.3 -0.4
v 0.3 0.4 -0.1
v 0.3 0.4 -0.2
v 0.3 0.4 -0.3
v 0.3 0.4 -0.4
v 0.3 0.5 -0.1
v 0.3 0.5 -0.2
v 0.3 0.5 -0.3
v 0.3 0.5 -0.4
v 0.3 0.6 -0.1
v 0.3 0.6 -0.2
v 0.3 0.6 -0.3
v 0.3 0.6 -0.4
v 0.3 0.7 -0.1
v 0.3 0.7 -0.2
v 0.3 0.7 -0.3
v 0.3 0.7 -0.4
v 0.3 0.9 -0.1
v 0.3 0.9 -0.2
v 0.3 0.9 -0.3
v 0.3 0.9 -0.4
v 5.96046e-08 0 2.23517e-08
v 5.96046e-08 0.2 2.23517e-08
v 5.96046e-08 0.3 2.23517e-08
v 5.96046e-08 0.4 2.23517e-08
v 5.96046e-08 0.5 2.23517e-08
v 5.96046e-08 0.6 2.23517e-08
v 5.96046e-08 0.7 2.23517e-08
v 5.96046e-08 0.9 2.23517e-08
v 0.1 0 2.23517e-08
v 0.1 0.2 2.23517e-08
v 0.1 0.3 2.23517e-08
v 0.1 0.4 2.23517e-08
v 0.1 0.5 2.23517e-08
v 0.1 0.6 2.23517e-08
v 0.1 0.7 2.23517e-08
v 0.1 0.9 2.23517e-08
v -0.2 0 -0.1
v -0.2 0.2 -0.1
v -0.2 0.3 -0.1
v -0.2 0.4 -0.1
v -0.2 0.5 -0.1
v -0.2 0.6 -0.1
v -0.2 0.7 -0.1
v -0.2 0.9 -0.1
v -0.0999999 0 -0.1
v -0.0999999 0.2 -0.1
v -0.0999999 0.3 -0.1
v -0.0999999 0.4 -0.1
v -0.0999999 0.5 -0.1
v -0.0999999 0.6 -0.1
v -0.0999999 0.7 -0.1
v -0.0999999 0.9 -0.1
v 0.2 0 -0.1
v 0.2 0.2 -0.1
v 0.2 0.3 -0.1
v 0.2 0.4 -0.1
v 0.2 0.5 -0.1
v 0.2 0.6 -0.1
v 0.2 0.7 -0.1
v 0.2 0.9 -0.1
v 0.3 0 -0.1
v 0.3 0.2 -0.1
v 0.3 0.3 -0.1
v 0.3 0.4 -0.1
v 0.3 0.5 -0.1
v 0.3 0.6 -0.1
v 0.3 0.7 -0.1
v 0.3 0.9 -0.1
v 5.96046e-08 0 -0.2
v 5.96046e-08 0.2 -0.2
v 5.96046e-08 0.3 -0.2
v 5.96046e-08 0.4 -0.2
v 5.96046e-08 0.5 -0.2
v 5.96046e-08 0.6 -0.2
v 5.96046e-08 0.7 -0.2
v 5.96046e-08 0.9 -0.2
v 0.1 0 -0.2
v 0.1 0.2 -0.2
v 0.1 0.3 -0.2
v 0.1 0.4 -0.2
v 0.1 0.5 -0.2
v 0.1 0.6 -0.2
v 0.1 0.7 -0.2
v 0.1 0.9 -0.2
v -0.2 0 -0.3
v -0.2 0.2 -0.3
v -0.2 0.3 -0.3
v -0.2 0.4 -0.3
v -0.2 0.5 -0.3
v -0.2 0.6 -0.3
v -0.2 0.7 -0.3
v -0.2 0.9 -0.3
v -0.0999999 0 -0.3
v -0.0999999 0.2 -0.3
v -0.0999999 0.3 -0.3
v -0.0999999 0.4 -0.3
v -0.0999999 0.5 -0.3
v -0.0999999 0.6 -0.3
v -0.0999999 0.7 -0.3
v -0.0999999 0.9 -0.3
v 0.2 0 -0.3
v 0.2 0.2 -0.3
v 0.2 0.3 -0.3
v 0.2 0.4 -0.3
v 0.2 0.5 -0.3
v 0.2 0.6 -0.3
v 0.2 0.7 -0.3
v 0.2 0.9 -0.3
v 0.3 0 -0.3
v 0.3 0.2 -0.3
v 0.3 0.3 -0.3
v 0.3 0.4 -0.3
v 0.3 0.5 -0.3
v 0.3 0.6 -0.3
v 0.3 0.7 -0.3
v 0.3 0.9 -0.3
v 5.96046e-08 0 -0.4
v 5.96046e-08 0.2 -0.4
v 5.96046e-08 0.3 -0.4
v 5.96046e-08 0.4 -0.4
v 5.96046e-08 0.5 -0.4
v 5.96046e-08 0.6 -0.4
v 5.96046e-08 0.7 -0.4
v 5.96046e-08 0.9 -0.4
v 0.1 0 -0.4
v 0.1 0.2 -0.4
v 0.1 0.3 -0.4
v 0.1 0.4 -0.4
v 0.1 0.5 -0.4
v 0.1 0.6 -0.4
v 0.1 0.7 -0.4
v 0.1 0.9 -0.4
v 5.96046e-08 0 -0.1
v 5.96046e-08 0.2 -0.1
v 5.96046e-08 0.3 -0.1
v 5.96046e-08 0.4 -0.1
v 5.96046e-08 0.5 -0.1
v 5.96046e-08 0.6 -0.1
v 5.96046e-08 0.7 -0.1
v 5.96046e-08 0.9 -0.1
v 0.1 0 -0.1
v 0.1 0.2 -0.1
v 0.1 0.3 -0.1
v 0.1 0.4 -0.1
v 0.1 0.5 -0.1
v 0.1 0.6 -0.1
v 0.1 0.7 -0.1
v 0.1 0.9 -0.1
v -0.2 0 -0.2
v -0.2 0.2 -0.2
v -0.2 0.3 -0.2
v -0.2 0.4 -0.2
v -0.2 0.5 -0.2
v -0.2 0.6 -0.2
v -0.2 0.7 -0.2
v -0.2 0.9 -0.2
v -0.0999999 0 -0.2
v -0.0999999 0.2 -0.2
v -0.0999999 0.3 -0.2
v -0.0999999 0.4 -0.2
v -0.0999999 0.5 -0.2
v -0.0999999 0.6 -0.2
v -0.0999999 0.7 -0.2
v -0.0999999 0.9 -0.2
v 0.2 0 -0.2
v 0.2 0.2 -0.2
v 0.2 0.3 -0.2
v 0.2 0.4 -0.2
v 0.2 0.5 -0.2
v 0.2 0.6 -0.2
v 0.2 0.7 -0.2
v 0.2 0.9 -0.2
v 0.3 0 -0.2
v 0.3 0.2 -0.2
v 0.3 0.3 -0.2
v 0.3 0.4 -0.2
v 0.3 0.5 -0.2
v 0.3 0.6 -0.2
v 0.3 0.7 -0.2
v 0.3 0.9 -0.2
v 5.96046e-08 0 -0.3
v 5.96046e-08 0.2 -0.3
v 5.96046e-08 0.3 -0.3
v 5.96046e-08 0.4 -0.3
v 5.96046e-08 0.5 -0.3
v 5.96046e-08 0.6 -0.3
v 5.96046e-08 0.7 -0.3
v 5.96046e-08 0.9 -0.3
v 0.1 0 -0.3
v 0.1 0.2 -0.3
v 0.1 0.3 -0.3
v 0.1 0.4 -0.3
v 0.1 0.5 -0.3
v 0.1 0.6 -0.3
v 0.1 0.7 -0.3
v 0.1 0.9 -0.3
v -0.2 0 -0.4
v -0.2 0.2 -0.4
v -0.2 0.3 -0.4
v -0.2 0.4 -0.4
v -0.2 0.5 -0.4
v -0.2 0.6 -0.4
v -0.2 0.7 -0.4
v -0.2 0.9 -0.4
v -0.0999999 0 -0.4
v -0.0999999 0.2 -0.4
v -0.0999999 0.3 -0.4
v -0.0999999 0.4 -0.4
v -0.0999999 0.5 -0.4
v -0.0999999 0.6 -0.4
v -0.0999999 0.7 -0.4
v -0.0999999 0.9 -0.4
v 0.2 0 -0.4
v 0.2 0.2 -0.4
v 0.2 0.3 -0.4
v 0.2 0.4 -0.4
v 0.2 0.5 -0.4
v 0.2 0.6 -0.4
v 0.2 0.7 -0.4
v 0.2 0.9 -0.4
v 0.3 0 -0.4
v 0.3 0.2 -0.4
v 0.3 0.3 -0.4
v 0.3 0.4 -0.4
v 0.3 0.5 -0.4
v 0.3 0.6 -0.4
v 0.3 0.7 -0.4
v 0.3 0.9 -0.4
v 5.96046e-08 0 -0.5
v 5.96046e-08 0.2 -0.5
v 5.96046e-08 0.3 -0.5
v 5.96046e-08 0.4 -0.5
v 5.96046e-08 0.5 -0.5
v 5.96046e-08 0.6 -0.5
v 5.96046e-08 0.7 -0.5
v 5.96046e-08 0.9 -0.5
v 0.1 0 -0.5
v 0.1 0.2 -0.5
v 0.1 0.3 -0.5
v 0.1 0.4 -0.5
v 0.1 0.5 -0.5
v 0.1 0.6 -0.5
v 0.1 0.7 -0.5
v 0.1 0.9 -0.5
v 5.96046e-08 0 2.23517e-08
v 0.1 0 2.23517e-08
v -0.2 0 -0.1
v -0.0999999 0 -0.1
v 5.96046e-08 0 -0.1
v 0.1 0 -0.1
v 0.2 0 -0.1
v 0.3 0 -0.1
v -0.2 0 -0.2
v -0.0999999 0 -0.2
v 5.96046e-08 0 -0.2
v 0.1 0 -0.2
v 0.2 0 -0.2
v 0.3 0 -0.2
v -0.2 0 -0.3
v -0.0999999 0 -0.3
v 5.96046e-08 0 -0.3
v 0.1 0 -0.3
v 0.2 0 -0.3
v 0.3 0 -0.3
v -0.2 0 -0.4
v -0.0999999 0 -0.4
v 5.96046e-08 0 -0.4
v 0.1 0 -0.4
v 0.2 0 -0.4
v 0.3 0 -0.4
v 5.96046e-08 0 -0.5
v 0.1 0 -0.5
v 5.96046e-08 0.9 2.23517e-08
v 0.1 0.9 2.23517e-08
v -0.2 0.9 -0.1
v -0.0999999 0.9 -0.1
v 5.96046e-08 0.9 -0.1
v 0.1 0.9 -0.1
v 0.2 0.9 -0.1
v 0.3 0.9 -0.1
v -0.2 0.9 -0.2
v -0.0999999 0.9 -0.2
v 5.96046e-08 0.9 -0.2
v 0.1 0.9 -0.2
v 0.2 0.9 -0.2
v 0.3 0.9 -0.2
v -0.2 0.9 -0.3
v -0.0999999 0.9 -0.3
v 5.96046e-08 0.9 -0.3
v 0.1 0.9 -0.3
v 0.2 0.9 -0.3
v 0.3 0.9 -0.3
v -0.2 0.9 -0.4
v -0.0999999 0.9 -0.4
v 5.96046e-08 0.9 -0.4
v 0.1 0.9 -0.4
v 0.2 0.9 -0.4
v 0.3 0.9 -0.4
v 5.96046e-08 0.9 -0.5
v 0.1 0.9 -0.5

# faces
f 5/1/1 2/1/1 1/1/1
f 6/1/1 2/1/1 5/1/1
f 7/1/1 4/1/1 3/1/1
f 8/1/1 4/1/1 7/1/1
f 9/2/1 6/2/1 5/2/1
f 10/2/1 6/2/1 9/2/1
f 11/3/1 8/3/1 7/3/1
f 12/3/1 8/3/1 11/3/1
f 13/1/1 10/1/1 9/1/1
f 14/1/1 10/1/1 13/1/1
f 15/1/1 12/1/1 11/1/1
f 16/1/1 12/1/1 15/1/1
f 17/2/1 14/2/1 13/2/1
f 18/2/1 14/2/1 17/2/1
f 19/3/1 16/3/1 15/3/1
f 20/3/1 16/3/1 19/3/1
f 21/1/1 18/1/1 17/1/1
f 22/1/1 18/1/1 21/1/1
f 23/1/1 20/1/1 19/1/1
f 24/1/1 20/1/1 23/1/1
f 25/2/1 22/2/1 21/2/1
f 26/2/1 22/2/1 25/2/1
f 27/3/1 24/3/1 23/3/1
f 28/3/1 24/3/1 27/3/1
f 29/1/1 26/1/1 25/1/1
f 30/1/1 26/1/1 29/1/1
f 31/1/1 28/1/1 27/1/1
f 32/1/1 28/1/1 31/1/1
f 39/1/1 34/1/1 33/1/1
f 40/1/1 34/1/1 39/1/1
f 41/1/1 36/1/1 35/1/1
f 42/1/1 36/1/1 41/1/1
f 43/1/1 38/1/1 37/1/1
f 44/1/1 38/1/1 43/1/1
f 45/5/1 40/5/1 39/5/1
f 46/5/1 40/5/1 45/5/1
f 47/5/1 42/5/1 41/5/1
f 48/5/1 42/5/1 47/5/1
f 49/2/1 44/2/1 43/2/1
f 50/2/1 44/2/1 49/2/1
f 51/1/1 46/1/1 45/1/1
f 52/1/1 46/1/1 51/1/1
f 53/1/1 48/1/1 47/1/1
f 54/1/1 48/1/1 53/1/1
f 55/1/1 50/1/1 49/1/1
f 56/1/1 50/1/1 55/1/1
f 57/5/1 52/5/1 51/5/1
f 58/5/1 52/5/1 57/5/1
f 59/5/1 54/5/1 53/5/1
f 60/5/1 54/5/1 59/5/1
f 61/2/1 56/2/1 55/2/1
f 62/2/1 56/2/1 61/2/1
f 63/1/1 58/1/1 57/1/1
f 64/1/1 58/1/1 63/1/1
f 65/1/1 60/1/1 59/1/1
f 66/1/1 60/1/1 65/1/1
f 67/1/1 62/1/1 61/1/1
f 68/1/1 62/1/1 67/1/1
f 69/5/1 64/5/1 63/5/1
f 70/5/1 64/5/1 69/5/1
f 71/5/1 66/5/1 65/5/1
f 72/5/1 66/5/1 71/5/1
f 73/2/1 68/2/1 67/2/1
f 74/2/1 68/2/1 73/2/1
f 75/1/1 70/1/1 69/1/1
f 76/1/1 70/1/1 75/1/1
f 77/1/1 72/1/1 71/1/1
f 78/1/1 72/1/1 77/1/1
f 79/1/1 74/1/1 73/1/1
f 80/1/1 74/1/1 79/1/1
f 85/1/1 82/1/1 81/1/1
f 86/1/1 82/1/1 85/1/1
f 87/1/1 84/1/1 83/1/1
f 88/1/1 84/1/1 87/1/1
f 89/4/1 86/4/1 85/4/1
f 90/4/1 86/4/1 89/4/1
f 91/3/1 88/3/1 87/3/1
f 92/3/1 88/3/1 91/3/1
f 93/1/1 90/1/1 89/1/1
f 94/1/1 90/1/1 93/1/1
f 95/1/1 92/1/1 91/1/1
f 96/1/1 92/1/1 95/1/1
f 97/4/1 94/4/1 93/4/1
f 98/4/1 94/4/1 97/4/1
f 99/3/1 96/3/1 95/3/1
f 100/3/1 96/3/1 99/3/1
f 101/1/1 98/1/1 97/1/1
f 102/1/1 98/1/1 101/1/1
f 103/1/1 100/1/1 99/1/1
f 104/1/1 100/1/1 103/1/1
f 105/4/1 102/4/1 101/4/1
f 106/4/1 102/4/1 105/4/1
f 107/3/1 104/3/1 103/3/1
f 108/3/1 104/3/1 107/3/1
f 109/1/1 106/1/1 105/1/1
f 110/1/1 106/1/1 109/1/1
f 111/1/1 108/1/1 107/1/1
f 112/1/1 108/1/1 111/1/1
f 113/1/2 114/1/2 117/1/2
f 117/1/2 114/1/2 118/1/2
f 115/1/2 116/1/2 119/1/2
f 119/1/2 116/1/2 120/1/2
f 117/2/2 118/2/2 121/2/2
f 121/2/2 118/2/2 122/2/2
f 119/3/2 120/3/2 123/3/2
f 123/3/2 120/3/2 124/3/2
f 121/1/2 122/1/2 125/1/2
f 125/1/2 122/1/2 126/1/2
f 123/1/2 124/1/2 127/1/2
f 127/1/2 124/1/2 128/1/2
f 125/2/2 126/2/2 129/2/2
f 129/2/2 126/2/2 130/2/2
f 127/3/2 128/3/2 131/3/2
f 131/3/2 128/3/2 132/3/2
f 129/1/2 130/1/2 133/1/2
f 133/1/2 130/1/2 134/1/2
f 131/1/2 132/1/2 135/1/2
f 135/1/2 132/1/2 136/1/2
f 133/2/2 134/2/2 137/2/2
f 137/2/2 134/2/2 138/2/2
f 135/3/2 136/3/2 139/3/2
f 139/3/2 136/3/2 140/3/2
f 137/1/2 138/1/2 141/1/2
f 141/1/2 138/1/2 142/1/2
f 139/1/2 140/1/2 143/1/2
f 143/1/2 140/1/2 144/1/2
f 145/1/2 146/1/2 151/1/2
f 151/1/2 146/1/2 152/1/2
f 147/1/2 148/1/2 153/1/2
f 153/1/2 148/1/2 154/1/2
f 149/1/2 150/1/2 155/1/2
f 155/1/2 150/1/2 156/1/2
f 151/5/2 152/5/2 157/5/2
f 157/5/2 152/5/2 158/5/2
f 153/5/2 154/5/2 159/5/2
f 159/5/2 154/5/2 160/5/2
f 155/2/2 156/2/2 161/2/2
f 161/2/2 156/2/2 162/2/2
f 157/1/2 158/1/2 163/1/2
f 163/1/2 158/1/2 164/1/2
f 159/1/2 160/1/2 165/1/2
f 165/1/2 160/1/2 166/1/2
f 161/1/2 162/1/2 167/1/2
f 167/1/2 162/1/2 168/1/2
f 163/5/2 164/5/2 169/5/2
f 169/5/2 164/5/2 170/5/2
f 165/5/2 166/5/2 171/5/2
f 171/5/2 166/5/2 172/5/2
f 167/2/2 168/2/2 173/2/2
f 173/2/2 168/2/2 174/2/2
f 169/1/2 170/1/2 175/1/2
f 175/1/2 170/1/2 176/1/2
f 171/1/2 172/1/2 177/1/2
f 177/1/2 172/1/2 178/1/2
f 173/1/2 174/1/2 179/1/2
f 179/1/2 174/1/2 180/1/2
f 175/5/2 176/5/2 181/5/2
f 181/5/2 176/5/2 182/5/2
f 177/5/2 178/5/2 183/5/2
f 183/5/2 178/5/2 184/5/2
f 179/2/2 180/2/2 185/2/2
f 185/2/2 180/2/2 186/2/2
f 181/1/2 182/1/2 187/1/2
f 187/1/2 182/1/2 188/1/2
f 183/1/2 184/1/2 189/1/2
f 189/1/2 184/1/2 190/1/2
f 185/1/2 186/1/2 191/1/2
f 191/1/2 186/1/2 192/1/2
f 193/1/2 194/1/2 197/1/2
f 197/1/2 194/1/2 198/1/2
f 195/1/2 196/1/2 199/1/2
f 199/1/2 196/1/2 200/1/2
f 197/4/2 198/4/2 201/4/2
f 201/4/2 198/4/2 202/4/2
f 199/3/2 200/3/2 203/3/2
f 203/3/2 200/3/2 204/3/2
f 201/1/2 202/1/2 205/1/2
f 205/1/2 202/1/2 206/1/2
f 203/1/2 204/1/2 207/1/2
f 207/1/2 204/1/2 208/1/2
f 205/4/2 206/4/2 209/4/2
f 209/4/2 206/4/2 210/4/2
f 207/3/2 208/3/2 211/3/2
f 211/3/2 208/3/2 212/3/2
f 209/1/2 210/1/2 213/1/2
f 213/1/2 210/1/2 214/1/2
f 211/1/2 212/1/2 215/1/2
f 215/1/2 212/1/2 216/1/2
f 213/4/2 214/4/2 217/4/2
f 217/4/2 214/4/2 218/4/2
f 215/3/2 216/3/2 219/3/2
f 219/3/2 216/3/2 220/3/2
f 217/1/2 218/1/2 221/1/2
f 221/1/2 218/1/2 222/1/2
f 219/1/2 220/1/2 223/1/2
f 223/1/2 220/1/2 224/1/2
f 233/1/3 226/1/3 225/1/3
f 234/5/3 227/5/3 226/5/3
f 234/1/3 226/1/3 233/1/3
f 235/1/3 228/1/3 227/1/3
f 235/5/3 227/5/3 234/5/3
f 236/5/3 229/5/3 228/5/3
f 236/1/3 228/1/3 235/1/3
f 237/1/3 230/1/3 229/1/3
f 237/5/3 229/5/3 236/5/3
f 238/5/3 231/5/3 230/5/3
f 238/1/3 230/1/3 237/1/3
f 239/1/3 232/1/3 231/1/3
f 239/5/3 231/5/3 238/5/3
f 240/1/3 232/1/3 239/1/3
f 249/1/3 242/1/3 241/1/3
f 250/2/3 243/2/3 242/2/3
f 250/1/3 242/1/3 249/1/3
f 251/1/3 244/1/3 243/1/3
f 251/2/3 243/2/3 250/2/3
f 252/2/3 245/2/3 244/2/3
f 252/1/3 244/1/3 251/1/3
f 253/1/3 246/1/3 245/1/3
f 253/2/3 245/2/3 252/2/3
f 254/2/3 247/2/3 246/2/3
f 254/1/3 246/1/3 253/1/3
f 255/1/3 248/1/3 247/1/3
f 255/2/3 247/2/3 254/2/3
f 256/1/3 248/1/3 255/1/3
f 265/1/3 258/1/3 257/1/3
f 266/4/3 259/4/3 258/4/3
f 266/1/3 258/1/3 265/1/3
f 267/1/3 260/1/3 259/1/3
f 267/4/3 259/4/3 266/4/3
f 268/4/3 261/4/3 260/4/3
f 268/1/3 260/1/3 267/1/3
f 269/1/3 262/1/3 261/1/3
f 269/4/3 261/4/3 268/4/3
f 270/4/3 263/4/3 262/4/3
f 270/1/3 262/1/3 269/1/3
f 271/1/3 264/1/3 263/1/3
f 271/4/3 263/4/3 270/4/3
f 272/1/3 264/1/3 271/1/3
f 281/1/3 274/1/3 273/1/3
f 282/5/3 275/5/3 274/5/3
f 282/1/3 274/1/3 281/1/3
f 283/1/3 276/1/3 275/1/3
f 283/5/3 275/5/3 282/5/3
f 284/5/3 277/5/3 276/5/3
f 284/1/3 276/1/3 283/1/3
f 285/1/3 278/1/3 277/1/3
f 285/5/3 277/5/3 284/5/3
f 286/5/3 279/5/3 278/5/3
f 286/1/3 278/1/3 285/1/3
f 287/1/3 280/1/3 279/1/3
f 287/5/3 279/5/3 286/5/3
f 288/1/3 280/1/3 287/1/3
f 297/1/3 290/1/3 289/1/3
f 298/3/3 291/3/3 290/3/3
f 298/1/3 290/1/3 297/1/3
f 299/1/3 292/1/3 291/1/3
f 299/3/3 291/3/3 298/3/3
f 300/3/3 293/3/3 292/3/3
f 300/1/3 292/1/3 299/1/3
f 301/1/3 294/1/3 293/1/3
f 301/3/3 293/3/3 300/3/3
f 302/3/3 295/3/3 294/3/3
f 302/1/3 294/1/3 301/1/3
f 303/1/3 296/1/3 295/1/3
f 303/3/3 295/3/3 302/3/3
f 304/1/3 296/1/3 303/1/3
f 313/1/3 306/1/3 305/1/3
f 314/3/3 307/3/3 306/3/3
f 314/1/3 306/1/3 313/1/3
f 315/1/3 308/1/3 307/1/3
f 315/3/3 307/3/3 314/3/3
f 316/3/3 309/3/3 308/3/3
f 316/1/3 308/1/3 315/1/3
f 317/1/3 310/1/3 309/1/3
f 317/3/3 309/3/3 316/3/3
f 318/3/3 311/3/3 310/3/3
f 318/1/3 310/1/3 317/1/3
f 319/1/3 312/1/3 311/1/3
f 319/3/3 311/3/3 318/3/3
f 320/1/3 312/1/3 319/1/3
f 329/1/3 322/1/3 321/1/3
f 330/2/3 323/2/3 322/2/3
f 330/1/3 322/1/3 329/1/3
f 331/1/3 324/1/3 323/1/3
f 331/2/3 323/2/3 330/2/3
f 332/2/3 325/2/3 324/2/3
f 332/1/3 324/1/3 331/1/3
f 333/1/3 326/1/3 325/1/3
f 333/2/3 325/2/3 332/2/3
f 334/2/3 327/2/3 326/2/3
f 334/1/3 326/1/3 333/1/3
f 335/1/3 328/1/3 327/1/3
f 335/2/3 327/2/3 334/2/3
f 336/1/3 328/1/3 335/1/3
f 337/1/4 338/1/4 345/1/4
f 338/5/4 339/5/4 346/5/4
f 345/1/4 338/1/4 346/1/4
f 339/1/4 340/1/4 347/1/4
f 346/5/4 339/5/4 347/5/4
f 340/5/4 341/5/4 348/5/4
f 347/1/4 340/1/4 348/1/4
f 341/1/4 342/1/4 349/1/4
f 348/5/4 341/5/4 349/5/4
f 342/5/4 343/5/4 350/5/4
f 349/1/4 342/1/4 350/1/4
f 343/1/4 344/1/4 351/1/4
f 350/5/4 343/5/4 351/5/4
f 351/1/4 344/1/4 352/1/4
f 353/1/4 354/1/4 361/1/4
f 354/2/4 355/2/4 362/2/4
f 361/1/4 354/1/4 362/1/4
f 355/1/4 356/1/4 363/1/4
f 362/2/4 355/2/4 363/2/4
f 356/2/4 357/2/4 364/2/4
f 363/1/4 356/1/4 364/1/4
f 357/1/4 358/1/4 365/1/4
f 364/2/4 357/2/4 365/2/4
f 358/2/4 359/2/4 366/2/4
f 365/1/4 358/1/4 366/1/4
f 359/1/4 360/1/4 367/1/4
f 366/2/4 359/2/4 367/2/4
f 367/1/4 360/1/4 368/1/4
f 369/1/4 370/1/4 377/1/4
f 370/4/4 371/4/4 378/4/4
f 377/1/4 370/1/4 378/1/4
f 371/1/4 372/1/4 379/1/4
f 378/4/4 371/4/4 379/4/4
f 372/4/4 373/4/4 380/4/4
f 379/1/4 372/1/4 380/1/4
f 373/1/4 374/1/4 381/1/4
f 380/4/4 373/4/4 381/4/4
f 374/4/4 375/4/4 382/4/4
f 381/1/4 374/1/4 382/1/4
f 375/1/4 376/1/4 383/1/4
f 382/4/4 375/4/4 383/4/4
f 383/1/4 376/1/4 384/1/4
f 385/1/4 386/1/4 393/1/4
f 386/5/4 387/5/4 394/5/4
f 393/1/4 386/1/4 394/1/4
f 387/1/4 388/1/4 395/1/4
f 394/5/4 387/5/4 395/5/4
f 388/5/4 389/5/4 396/5/4
f 395/1/4 388/1/4 396/1/4
f 389/1/4 390/1/4 397/1/4
f 396/5/4 389/5/4 397/5/4
f 390/5/4 391/5/4 398/5/4
f 397/1/4 390/1/4 398/1/4
f 391/1/4 392/1/4 399/1/4
f 398/5/4 391/5/4 399/5/4
f 399/1/4 392/1/4 400/1/4
f 401/1/4 402/1/4 409/1/4
f 402/3/4 403/3/4 410/3/4
f 409/1/4 402/1/4 410/1/4
f 403/1/4 404/1/4 411/1/4
f 410/3/4 403/3/4 411/3/4
f 404/3/4 405/3/4 412/3/4
f 411/1/4 404/1/4 412/1/4
f 405/1/4 406/1/4 413/1/4
f 412/3/4 405/3/4 413/3/4
f 406/3/4 407/3/4 414/3/4
f 413/1/4 406/1/4 414/1/4
f 407/1/4 408/1/4 415/1/4
f 414/3/4 407/3/4 415/3/4
f 415/1/4 408/1/4 416/1/4
f 417/1/4 418/1/4 425/1/4
f 418/3/4 419/3/4 426/3/4
f 425/1/4 418/1/4 426/1/4
f 419/1/4 420/1/4 427/1/4
f 426/3/4 419/3/4 427/3/4
f 420/3/4 421/3/4 428/3/4
f 427/1/4 420/1/4 428/1/4
f 421/1/4 422/1/4 429/1/4
f 428/3/4 421/3/4 429/3/4
f 422/3/4 423/3/4 430/3/4
f 429/1/4 422/1/4 430/1/4
f 423/1/4 424/1/4 431/1/4
f 430/3/4 423/3/4 431/3/4
f 431/1/4 424/1/4 432/1/4
f 433/1/4 434/1/4 441/1/4
f 434/2/4 435/2/4 442/2/4
f 441/1/4 434/1/4 442/1/4
f 435/1/4 436/1/4 443/1/4
f 442/2/4 435/2/4 443/2/4
f 436/2/4 437/2/4 444/2/4
f 443/1/4 436/1/4 444/1/4
f 437/1/4 438/1/4 445/1/4
f 444/2/4 437/2/4 445/2/4
f 438/2/4 439/2/4 446/2/4
f 445/1/4 438/1/4 446/1/4
f 439/1/4 440/1/4 447/1/4
f 446/2/4 439/2/4 447/2/4
f 447/1/4 440/1/4 448/1/4
f 453/1/5 450/1/5 449/1/5
f 454/1/5 450/1/5 453/1/5
f 457/1/5 452/1/5 451/1/5
f 458/1/5 452/1/5 457/1/5
f 461/1/5 456/1/5 455/1/5
f 462/1/5 456/1/5 461/1/5
f 465/1/5 460/1/5 459/1/5
f 466/1/5 460/1/5 465/1/5
f 469/1/5 464/1/5 463/1/5
f 470/1/5 464/1/5 469/1/5
f 473/1/5 468/1/5 467/1/5
f 474/1/5 468/1/5 473/1/5
f 475/1/5 472/1/5 471/1/5
f 476/1/5 472/1/5 475/1/5
f 477/1/6 478/1/6 481/1/6
f 481/1/6 478/1/6 482/1/6
f 479/1/6 480/1/6 485/1/6
f 485/1/6 480/1/6 486/1/6
f 483/1/6 484/1/6 489/1/6
f 489/1/6 484/1/6 490/1/6
f 487/1/6 488/1/6 493/1/6
f 493/1/6 488/1/6 494/1/6
f 491/1/6 492/1/6 497/1/6
f 497/1/6 492/1/6 498/1/6
f 495/1/6 496/1/6 501/1/6
f 501/1/6 496/1/6 502/1/6
f 499/1/6 500/1/6 503/1/6
f 503/1/6 500/1/6 504/1/6
