# MagicaVoxel @ Ephtracy

# group
o 

# material
mtllib Crane_pedestal.mtl
usemtl palette

# normals
vn -1 0 0
vn 1 0 0
vn 0 0 1
vn 0 0 -1
vn 0 -1 0
vn 0 1 0

# texcoords
vt 0.146484 0.5
vt 0.423828 0.5
vt 0.880859 0.5
vt 0.958984 0.5
vt 0.982422 0.5
vt 0.986328 0.5
vt 0.994141 0.5

# verts
v -1 0 0.6
v -1 0 -0.6
v -1 0.2 0.6
v -1 0.2 -0.6
v -0.8 0.2 0.4
v -0.8 0.2 -0.4
v -0.8 0.4 0.4
v -0.8 0.4 0.2
v -0.8 0.4 -0.2
v -0.8 0.4 -0.4
v -0.8 0.8 0.6
v -0.8 0.8 0.4
v -0.8 1 0.4
v -0.8 1 0.2
v -0.8 1.2 0.4
v -0.8 1.2 0.2
v -0.8 1.8 0.6
v -0.8 1.8 0.4
v -0.8 2.6 -0.2
v -0.8 2.6 -0.4
v -0.8 3 0.2
v -0.8 3 -0.4
v -0.6 0.6 1.2
v -0.6 0.6 0.6
v -0.6 0.8 1.2
v -0.6 0.8 1
v -0.6 0.8 0.8
v -0.6 0.8 0.6
v -0.6 1 1
v -0.6 1 0.8
v -0.2 0.8 1.2
v -0.2 0.8 0.8
v -0.2 1 1.2
v -0.2 1 0.8
v 0.2 0.2 0.4
v 0.2 0.2 -0.4
v 0.2 0.4 0.4
v 0.2 0.4 0.2
v 0.2 0.4 -0.2
v 0.2 0.4 -0.4
v 0.2 0.8 1.2
v 0.2 0.8 1
v 0.2 1 1.2
v 0.2 1 1
v 0.2 1 0.4
v 0.2 1 0.2
v 0.2 1.2 0.4
v 0.2 1.2 0.2
v 0.2 2.6 -0.2
v 0.2 2.6 -0.4
v 0.2 3 0.2
v 0.2 3 -0.4
v -0.4 0.2 0.4
v -0.4 0.2 -0.4
v -0.4 0.4 0.4
v -0.4 0.4 0.2
v -0.4 0.4 -0.2
v -0.4 0.4 -0.4
v -0.4 0.8 1
v -0.4 0.8 0.8
v -0.4 1 1
v -0.4 1 0.8
v -0.4 1 0.4
v -0.4 1 0.2
v -0.4 1.2 0.4
v -0.4 1.2 0.2
v -0.4 2.6 -0.2
v -0.4 2.6 -0.4
v -0.4 3 0.2
v -0.4 3 -0.4
v 1.19209e-07 0.8 1.2
v 1.19209e-07 0.8 0.8
v 1.19209e-07 1 1.2
v 1.19209e-07 1 0.8
v 0.4 0.6 1.2
v 0.4 0.6 0.6
v 0.4 0.8 1.2
v 0.4 0.8 1
v 0.4 0.8 0.6
v 0.4 1 1.2
v 0.4 1 1
v 0.6 0.2 0.4
v 0.6 0.2 -0.4
v 0.6 0.4 0.4
v 0.6 0.4 0.2
v 0.6 0.4 -0.2
v 0.6 0.4 -0.4
v 0.6 0.8 0.6
v 0.6 0.8 0.4
v 0.6 1 0.4
v 0.6 1 0.2
v 0.6 1.2 0.4
v 0.6 1.2 0.2
v 0.6 1.8 0.6
v 0.6 1.8 0.4
v 0.6 2.6 -0.2
v 0.6 2.6 -0.4
v 0.6 3 0.2
v 0.6 3 -0.4
v 0.8 0 0.6
v 0.8 0 -0.6
v 0.8 0.2 0.6
v 0.8 0.2 -0.6
v -0.6 0.6 1.2
v -0.6 0.8 1.2
v -0.2 0.8 1.2
v -0.2 1 1.2
v 1.19209e-07 0.8 1.2
v 1.19209e-07 1 1.2
v 0.2 0.8 1.2
v 0.2 1 1.2
v 0.4 0.6 1.2
v 0.4 0.8 1.2
v 0.4 1 1.2
v -0.6 0.8 1
v -0.6 1 1
v -0.4 0.8 1
v -0.4 1 1
v -1 0 0.6
v -1 0.2 0.6
v -0.8 0.8 0.6
v -0.8 1.8 0.6
v -0.6 0.8 0.6
v -0.6 1 0.6
v -0.6 1.6 0.6
v 0.4 0.8 0.6
v 0.4 1 0.6
v 0.4 1.6 0.6
v 0.6 0.8 0.6
v 0.6 1.8 0.6
v 0.8 0 0.6
v 0.8 0.2 0.6
v -0.8 0.2 0.4
v -0.8 0.4 0.4
v -0.4 0.2 0.4
v -0.4 0.4 0.4
v 0.2 0.2 0.4
v 0.2 0.4 0.4
v 0.6 0.2 0.4
v 0.6 0.4 0.4
v -0.8 0.4 0.2
v -0.8 1 0.2
v -0.8 1.2 0.2
v -0.8 3 0.2
v -0.4 0.4 0.2
v -0.4 1 0.2
v -0.4 1.2 0.2
v -0.4 3 0.2
v 0.2 0.4 0.2
v 0.2 1 0.2
v 0.2 1.2 0.2
v 0.2 3 0.2
v 0.6 0.4 0.2
v 0.6 1 0.2
v 0.6 1.2 0.2
v 0.6 3 0.2
v 0.2 0.8 1
v 0.2 1 1
v 0.4 0.8 1
v 0.4 1 1
v -0.6 0.8 0.8
v -0.6 1 0.8
v -0.4 0.8 0.8
v -0.4 1 0.8
v -0.2 0.8 0.8
v -0.2 1 0.8
v 1.19209e-07 0.8 0.8
v 1.19209e-07 1 0.8
v -0.6 0.6 0.6
v -0.6 0.8 0.6
v 0.4 0.6 0.6
v 0.4 0.8 0.6
v -0.8 0.8 0.4
v -0.8 1 0.4
v -0.8 1.2 0.4
v -0.8 1.8 0.4
v -0.6 1.2 0.4
v -0.6 1.6 0.4
v -0.4 1 0.4
v -0.4 1.2 0.4
v 0.2 1 0.4
v 0.2 1.2 0.4
v 0.4 1.2 0.4
v 0.4 1.6 0.4
v 0.6 0.8 0.4
v 0.6 1 0.4
v 0.6 1.2 0.4
v 0.6 1.8 0.4
v -0.8 0.4 -0.2
v -0.8 2.6 -0.2
v -0.4 0.4 -0.2
v -0.4 2.6 -0.2
v 0.2 0.4 -0.2
v 0.2 2.6 -0.2
v 0.6 0.4 -0.2
v 0.6 2.6 -0.2
v -0.8 0.2 -0.4
v -0.8 0.4 -0.4
v -0.8 2.6 -0.4
v -0.8 3 -0.4
v -0.4 0.2 -0.4
v -0.4 0.4 -0.4
v -0.4 2.6 -0.4
v -0.4 3 -0.4
v 0.2 0.2 -0.4
v 0.2 0.4 -0.4
v 0.2 2.6 -0.4
v 0.2 3 -0.4
v 0.6 0.2 -0.4
v 0.6 0.4 -0.4
v 0.6 2.6 -0.4
v 0.6 3 -0.4
v -1 0 -0.6
v -1 0.2 -0.6
v 0.8 0 -0.6
v 0.8 0.2 -0.6
v -1 0 0.6
v 0.8 0 0.6
v -1 0 -0.6
v 0.8 0 -0.6
v -0.6 0.6 1.2
v 0.4 0.6 1.2
v -0.6 0.6 0.6
v 0.4 0.6 0.6
v -0.8 0.8 0.6
v -0.6 0.8 0.6
v 0.4 0.8 0.6
v 0.6 0.8 0.6
v -0.8 0.8 0.4
v 0.6 0.8 0.4
v -0.8 1 0.4
v -0.4 1 0.4
v 0.2 1 0.4
v 0.6 1 0.4
v -0.8 1 0.2
v -0.4 1 0.2
v 0.2 1 0.2
v 0.6 1 0.2
v -0.8 2.6 -0.2
v -0.4 2.6 -0.2
v 0.2 2.6 -0.2
v 0.6 2.6 -0.2
v -0.8 2.6 -0.4
v -0.4 2.6 -0.4
v 0.2 2.6 -0.4
v 0.6 2.6 -0.4
v -1 0.2 0.6
v 0.8 0.2 0.6
v -0.8 0.2 0.4
v -0.4 0.2 0.4
v 0.2 0.2 0.4
v 0.6 0.2 0.4
v -0.8 0.2 -0.4
v -0.4 0.2 -0.4
v 0.2 0.2 -0.4
v 0.6 0.2 -0.4
v -1 0.2 -0.6
v 0.8 0.2 -0.6
v -0.8 0.4 0.4
v -0.4 0.4 0.4
v 0.2 0.4 0.4
v 0.6 0.4 0.4
v -0.8 0.4 0.2
v -0.4 0.4 0.2
v 0.2 0.4 0.2
v 0.6 0.4 0.2
v -0.8 0.4 -0.2
v -0.4 0.4 -0.2
v 0.2 0.4 -0.2
v 0.6 0.4 -0.2
v -0.8 0.4 -0.4
v -0.4 0.4 -0.4
v 0.2 0.4 -0.4
v 0.6 0.4 -0.4
v -0.6 0.8 1.2
v -0.2 0.8 1.2
v 1.19209e-07 0.8 1.2
v 0.2 0.8 1.2
v -0.6 0.8 1
v -0.4 0.8 1
v 0.2 0.8 1
v 0.4 0.8 1
v -0.6 0.8 0.8
v -0.4 0.8 0.8
v -0.2 0.8 0.8
v 1.19209e-07 0.8 0.8
v -0.6 0.8 0.6
v 0.4 0.8 0.6
v -0.2 1 1.2
v 1.19209e-07 1 1.2
v 0.2 1 1.2
v 0.4 1 1.2
v -0.6 1 1
v -0.4 1 1
v 0.2 1 1
v 0.4 1 1
v -0.6 1 0.8
v -0.4 1 0.8
v -0.2 1 0.8
v 1.19209e-07 1 0.8
v -0.8 1.2 0.4
v -0.6 1.2 0.4
v -0.4 1.2 0.4
v 0.2 1.2 0.4
v 0.4 1.2 0.4
v 0.6 1.2 0.4
v -0.8 1.2 0.2
v -0.4 1.2 0.2
v 0.2 1.2 0.2
v 0.6 1.2 0.2
v -0.8 1.8 0.6
v 0.6 1.8 0.6
v -0.8 1.8 0.4
v 0.6 1.8 0.4
v -0.8 3 0.2
v -0.4 3 0.2
v 0.2 3 0.2
v 0.6 3 0.2
v -0.8 3 -0.4
v -0.4 3 -0.4
v 0.2 3 -0.4
v 0.6 3 -0.4

# faces
f 3/6/1 2/6/1 1/6/1
f 4/6/1 2/6/1 3/6/1
f 7/6/1 6/6/1 5/6/1
f 8/6/1 6/6/1 7/6/1
f 9/6/1 6/6/1 8/6/1
f 10/6/1 6/6/1 9/6/1
f 13/7/1 12/7/1 11/7/1
f 14/6/1 9/6/1 8/6/1
f 15/7/1 13/7/1 11/7/1
f 15/6/1 14/6/1 13/6/1
f 16/6/1 9/6/1 14/6/1
f 16/6/1 14/6/1 15/6/1
f 17/7/1 15/7/1 11/7/1
f 18/7/1 15/7/1 17/7/1
f 19/6/1 9/6/1 16/6/1
f 21/6/1 19/6/1 16/6/1
f 21/6/1 20/6/1 19/6/1
f 22/6/1 20/6/1 21/6/1
f 25/5/1 24/5/1 23/5/1
f 26/5/1 24/5/1 25/5/1
f 27/5/1 24/5/1 26/5/1
f 28/5/1 24/5/1 27/5/1
f 29/1/1 27/1/1 26/1/1
f 30/1/1 27/1/1 29/1/1
f 33/3/1 32/3/1 31/3/1
f 34/3/1 32/3/1 33/3/1
f 37/6/1 36/6/1 35/6/1
f 38/6/1 36/6/1 37/6/1
f 39/6/1 36/6/1 38/6/1
f 40/6/1 36/6/1 39/6/1
f 43/2/1 42/2/1 41/2/1
f 44/2/1 42/2/1 43/2/1
f 46/6/1 39/6/1 38/6/1
f 47/6/1 46/6/1 45/6/1
f 48/6/1 39/6/1 46/6/1
f 48/6/1 46/6/1 47/6/1
f 49/6/1 39/6/1 48/6/1
f 51/6/1 49/6/1 48/6/1
f 51/6/1 50/6/1 49/6/1
f 52/6/1 50/6/1 51/6/1
f 53/6/2 54/6/2 55/6/2
f 55/6/2 54/6/2 56/6/2
f 56/6/2 54/6/2 57/6/2
f 57/6/2 54/6/2 58/6/2
f 59/1/2 60/1/2 61/1/2
f 61/1/2 60/1/2 62/1/2
f 56/6/2 57/6/2 64/6/2
f 63/6/2 64/6/2 65/6/2
f 64/6/2 57/6/2 66/6/2
f 65/6/2 64/6/2 66/6/2
f 66/6/2 57/6/2 67/6/2
f 66/6/2 67/6/2 69/6/2
f 67/6/2 68/6/2 69/6/2
f 69/6/2 68/6/2 70/6/2
f 71/3/2 72/3/2 73/3/2
f 73/3/2 72/3/2 74/3/2
f 75/5/2 76/5/2 77/5/2
f 77/5/2 76/5/2 78/5/2
f 78/5/2 76/5/2 79/5/2
f 77/2/2 78/2/2 80/2/2
f 80/2/2 78/2/2 81/2/2
f 82/6/2 83/6/2 84/6/2
f 84/6/2 83/6/2 85/6/2
f 85/6/2 83/6/2 86/6/2
f 86/6/2 83/6/2 87/6/2
f 88/7/2 89/7/2 90/7/2
f 85/6/2 86/6/2 91/6/2
f 88/7/2 90/7/2 92/7/2
f 90/6/2 91/6/2 92/6/2
f 91/6/2 86/6/2 93/6/2
f 92/6/2 91/6/2 93/6/2
f 88/7/2 92/7/2 94/7/2
f 94/7/2 92/7/2 95/7/2
f 93/6/2 86/6/2 96/6/2
f 93/6/2 96/6/2 98/6/2
f 96/6/2 97/6/2 98/6/2
f 98/6/2 97/6/2 99/6/2
f 100/6/2 101/6/2 102/6/2
f 102/6/2 101/6/2 103/6/2
f 106/5/3 105/5/3 104/5/3
f 108/5/3 106/5/3 104/5/3
f 108/3/3 107/3/3 106/3/3
f 109/3/3 107/3/3 108/3/3
f 110/5/3 108/5/3 104/5/3
f 112/5/3 110/5/3 104/5/3
f 113/2/3 111/2/3 110/2/3
f 113/5/3 110/5/3 112/5/3
f 114/2/3 111/2/3 113/2/3
f 117/1/3 116/1/3 115/1/3
f 118/1/3 116/1/3 117/1/3
f 123/7/3 122/7/3 121/7/3
f 124/7/3 122/7/3 123/7/3
f 125/7/3 122/7/3 124/7/3
f 126/7/3 124/7/3 123/7/3
f 127/4/3 125/4/3 124/4/3
f 127/7/3 124/7/3 126/7/3
f 128/7/3 122/7/3 125/7/3
f 128/4/3 125/4/3 127/4/3
f 129/7/3 127/7/3 126/7/3
f 129/7/3 128/7/3 127/7/3
f 130/7/3 122/7/3 128/7/3
f 130/7/3 128/7/3 129/7/3
f 131/6/3 120/6/3 119/6/3
f 132/6/3 120/6/3 131/6/3
f 135/6/3 134/6/3 133/6/3
f 136/6/3 134/6/3 135/6/3
f 139/6/3 138/6/3 137/6/3
f 140/6/3 138/6/3 139/6/3
f 145/6/3 142/6/3 141/6/3
f 146/6/3 142/6/3 145/6/3
f 147/6/3 144/6/3 143/6/3
f 148/6/3 144/6/3 147/6/3
f 153/6/3 150/6/3 149/6/3
f 154/6/3 150/6/3 153/6/3
f 155/6/3 152/6/3 151/6/3
f 156/6/3 152/6/3 155/6/3
f 157/2/4 158/2/4 159/2/4
f 159/2/4 158/2/4 160/2/4
f 161/1/4 162/1/4 163/1/4
f 163/1/4 162/1/4 164/1/4
f 165/3/4 166/3/4 167/3/4
f 167/3/4 166/3/4 168/3/4
f 169/5/4 170/5/4 171/5/4
f 171/5/4 170/5/4 172/5/4
f 175/7/4 176/7/4 177/7/4
f 177/7/4 176/7/4 178/7/4
f 173/7/4 174/7/4 179/7/4
f 177/4/4 178/4/4 180/4/4
f 173/7/4 179/7/4 181/7/4
f 179/4/4 180/4/4 181/4/4
f 180/4/4 178/4/4 182/4/4
f 181/4/4 180/4/4 182/4/4
f 182/4/4 178/4/4 183/4/4
f 178/7/4 176/7/4 184/7/4
f 183/4/4 178/4/4 184/4/4
f 173/7/4 181/7/4 185/7/4
f 185/7/4 181/7/4 186/7/4
f 183/7/4 184/7/4 187/7/4
f 184/7/4 176/7/4 188/7/4
f 187/7/4 184/7/4 188/7/4
f 189/6/4 190/6/4 191/6/4
f 191/6/4 190/6/4 192/6/4
f 193/6/4 194/6/4 195/6/4
f 195/6/4 194/6/4 196/6/4
f 197/6/4 198/6/4 201/6/4
f 201/6/4 198/6/4 202/6/4
f 199/6/4 200/6/4 203/6/4
f 203/6/4 200/6/4 204/6/4
f 205/6/4 206/6/4 209/6/4
f 209/6/4 206/6/4 210/6/4
f 207/6/4 208/6/4 211/6/4
f 211/6/4 208/6/4 212/6/4
f 213/6/4 214/6/4 215/6/4
f 215/6/4 214/6/4 216/6/4
f 219/6/5 218/6/5 217/6/5
f 220/6/5 218/6/5 219/6/5
f 223/5/5 222/5/5 221/5/5
f 224/5/5 222/5/5 223/5/5
f 229/7/5 226/7/5 225/7/5
f 229/7/5 228/7/5 227/7/5
f 229/7/5 227/7/5 226/7/5
f 230/7/5 228/7/5 229/7/5
f 235/6/5 232/6/5 231/6/5
f 236/6/5 232/6/5 235/6/5
f 237/6/5 234/6/5 233/6/5
f 238/6/5 234/6/5 237/6/5
f 243/6/5 240/6/5 239/6/5
f 244/6/5 240/6/5 243/6/5
f 245/6/5 242/6/5 241/6/5
f 246/6/5 242/6/5 245/6/5
f 247/6/6 248/6/6 249/6/6
f 249/6/6 248/6/6 250/6/6
f 250/6/6 248/6/6 251/6/6
f 251/6/6 248/6/6 252/6/6
f 247/6/6 249/6/6 253/6/6
f 250/6/6 251/6/6 254/6/6
f 254/6/6 251/6/6 255/6/6
f 252/6/6 248/6/6 256/6/6
f 254/6/6 255/6/6 257/6/6
f 255/6/6 256/6/6 257/6/6
f 247/6/6 253/6/6 257/6/6
f 253/6/6 254/6/6 257/6/6
f 256/6/6 248/6/6 258/6/6
f 257/6/6 256/6/6 258/6/6
f 259/6/6 260/6/6 263/6/6
f 263/6/6 260/6/6 264/6/6
f 261/6/6 262/6/6 265/6/6
f 265/6/6 262/6/6 266/6/6
f 267/6/6 268/6/6 271/6/6
f 271/6/6 268/6/6 272/6/6
f 269/6/6 270/6/6 273/6/6
f 273/6/6 270/6/6 274/6/6
f 275/5/6 276/5/6 279/5/6
f 279/5/6 276/5/6 280/5/6
f 277/5/6 278/5/6 281/5/6
f 280/5/6 276/5/6 284/5/6
f 284/5/6 276/5/6 285/5/6
f 277/5/6 281/5/6 286/5/6
f 281/5/6 282/5/6 286/5/6
f 284/5/6 285/5/6 287/5/6
f 285/5/6 286/5/6 287/5/6
f 283/5/6 284/5/6 287/5/6
f 286/5/6 282/5/6 288/5/6
f 287/5/6 286/5/6 288/5/6
f 291/2/6 292/2/6 295/2/6
f 295/2/6 292/2/6 296/2/6
f 293/1/6 294/1/6 297/1/6
f 297/1/6 294/1/6 298/1/6
f 289/3/6 290/3/6 299/3/6
f 299/3/6 290/3/6 300/3/6
f 301/6/6 302/6/6 307/6/6
f 302/6/6 303/6/6 307/6/6
f 307/6/6 303/6/6 308/6/6
f 305/6/6 306/6/6 309/6/6
f 304/6/6 305/6/6 309/6/6
f 309/6/6 306/6/6 310/6/6
f 311/7/6 312/7/6 313/7/6
f 313/7/6 312/7/6 314/7/6
f 315/6/6 316/6/6 319/6/6
f 319/6/6 316/6/6 320/6/6
f 317/6/6 318/6/6 321/6/6
f 321/6/6 318/6/6 322/6/6
